<?xml version="1.0" encoding="UTF-8"?><svg xmlns="http://www.w3.org/2000/svg" xmlns:xlink="http://www.w3.org/1999/xlink" fill-opacity="1" color-rendering="auto" color-interpolation="auto" text-rendering="auto" stroke="black" stroke-linecap="square" width="430" stroke-miterlimit="10" shape-rendering="auto" stroke-opacity="1" fill="black" stroke-dasharray="none" font-weight="normal" stroke-width="1" height="258" font-family="'Dialog'" font-style="normal" stroke-linejoin="miter" font-size="12" stroke-dashoffset="0" image-rendering="auto">
  <!--Generated by ySVG 2.5-->
  <defs id="genericDefs"/>
  <g>
    <defs id="defs1">
      <clipPath clipPathUnits="userSpaceOnUse" id="clipPath1">
        <path d="M0 0 L430 0 L430 258 L0 258 L0 0 Z"/>
      </clipPath>
      <clipPath clipPathUnits="userSpaceOnUse" id="clipPath2">
        <path d="M51 74 L266 74 L266 203 L51 203 L51 74 Z"/>
      </clipPath>
    </defs>
    <g fill="white" text-rendering="geometricPrecision" shape-rendering="geometricPrecision" transform="scale(2,2) translate(-51,-74)" stroke="white">
      <rect x="51" width="215" height="129" y="74" clip-path="url(#clipPath2)" stroke="none"/>
    </g>
    <g text-rendering="geometricPrecision" stroke-miterlimit="1.45" shape-rendering="geometricPrecision" font-family="sans-serif" transform="matrix(2,0,0,2,-102,-148)" stroke-linecap="butt">
      <text x="72.6582" xml:space="preserve" y="101.3564" clip-path="url(#clipPath2)" stroke="none">println</text>
      <text fill="red" x="120.0631" xml:space="preserve" y="101.3564" clip-path="url(#clipPath2)" stroke="none">$</text>
      <text fill="blue" x="144.2924" xml:space="preserve" y="101.3564" clip-path="url(#clipPath2)" stroke="none">"Hello World"</text>
      <text x="226.973" xml:space="preserve" y="101.3564" clip-path="url(#clipPath2)" stroke="none">;</text>
      <text x="153.7993" xml:space="preserve" font-size="9" y="153.4273" clip-path="url(#clipPath2)" stroke="none">argument list</text>
      <text x="208.3834" xml:space="preserve" font-size="9" y="177.8273" clip-path="url(#clipPath2)" stroke="none">terminator</text>
      <text x="108.6454" xml:space="preserve" font-size="9" y="168.7446" clip-path="url(#clipPath2)" stroke="none">Haskell</text>
      <text x="101.8844" xml:space="preserve" font-size="9" y="178.7993" clip-path="url(#clipPath2)" stroke="none">application</text>
      <text x="106.6393" xml:space="preserve" font-size="9" y="188.854" clip-path="url(#clipPath2)" stroke="none">operator</text>
      <text x="69.2422" xml:space="preserve" font-size="9" y="152.0753" clip-path="url(#clipPath2)" stroke="none">command</text>
      <path fill="none" d="M179.56 143.352 L179.56 120" clip-path="url(#clipPath2)"/>
      <path d="M179.56 112 L174.56 124 L179.56 121 L184.56 124 Z" clip-path="url(#clipPath2)" stroke="none"/>
      <path fill="none" d="M228.64 167.752 L228.64 120" clip-path="url(#clipPath2)"/>
      <path d="M228.64 112 L223.64 124 L228.64 121 L233.64 124 Z" clip-path="url(#clipPath2)" stroke="none"/>
      <path fill="none" d="M123.4 156.968 L123.4 120" clip-path="url(#clipPath2)"/>
      <path d="M123.4 112 L118.4 124 L123.4 121 L128.4 124 Z" clip-path="url(#clipPath2)" stroke="none"/>
      <path fill="none" d="M89 142 L89 120" clip-path="url(#clipPath2)"/>
      <path d="M89 112 L84 124 L89 121 L94 124 Z" clip-path="url(#clipPath2)" stroke="none"/>
    </g>
  </g>
</svg>
